<?xml version="1.0" encoding="utf-8"?>
<svg viewBox="234.539 79.939 123.522 123.59" width="123.522" height="123.59" xmlns="http://www.w3.org/2000/svg" xmlns:bx="https://boxy-svg.com">
  <path d="M 175.852 190.09 Q 190.999 154.916 206.146 190.09 L 206.146 190.09 Q 221.293 225.264 190.999 225.264 L 190.999 225.264 Q 160.705 225.264 175.852 190.09 Z" style="stroke: rgb(0, 0, 0); fill: rgb(50, 151, 3);" transform="matrix(0.906308, 0.422617, -0.422617, 0.906308, 194.485004, -89.884302)" bx:shape="triangle 160.705 154.916 60.588 70.348 0.5 0.5 1@b5957470"/>
  <path d="M 175.852 190.09 Q 190.999 154.916 206.146 190.09 L 206.146 190.09 Q 221.293 225.264 190.999 225.264 L 190.999 225.264 Q 160.705 225.264 175.852 190.09 Z" style="stroke: rgb(0, 0, 0); fill: rgb(3, 99, 151);" transform="matrix(-0.121868, 0.992546, -0.992546, -0.121868, 483.861457, -27.569571)" bx:shape="triangle 160.705 154.916 60.588 70.348 0.5 0.5 1@b5957470"/>
  <path d="M 175.852 190.09 Q 190.999 154.916 206.146 190.09 L 206.146 190.09 Q 221.293 225.264 190.999 225.264 L 190.999 225.264 Q 160.705 225.264 175.852 190.09 Z" style="stroke: rgb(0, 0, 0); fill: rgb(209, 43, 43);" transform="matrix(-0.981627, 0.190811, -0.190811, -0.981627, 515.355354, 268.473149)" bx:shape="triangle 160.705 154.916 60.588 70.348 0.5 0.5 1@b5957470"/>
  <path d="M 175.852 190.09 Q 190.999 154.916 206.146 190.09 L 206.146 190.09 Q 221.293 225.264 190.999 225.264 L 190.999 225.264 Q 160.705 225.264 175.852 190.09 Z" style="stroke: rgb(0, 0, 0); fill: rgb(255, 153, 0);" transform="matrix(-0.500001, -0.866025, 0.866025, -0.500001, 248.378269, 387.668615)" bx:shape="triangle 160.705 154.916 60.588 70.348 0.5 0.5 1@b5957470"/>
  <path d="M 175.852 190.09 Q 190.999 154.916 206.146 190.09 L 206.146 190.09 Q 221.293 225.264 190.999 225.264 L 190.999 225.264 Q 160.705 225.264 175.852 190.09 Z" style="stroke: rgb(0, 0, 0); fill: rgb(255, 247, 0);" transform="matrix(0.681998, -0.731354, 0.731354, 0.681998, 45.005833, 165.859912)" bx:shape="triangle 160.705 154.916 60.588 70.348 0.5 0.5 1@b5957470"/>
  <text style="fill: rgb(51, 51, 51); font-family: Arial, sans-serif; font-size: 36px; white-space: pre;" transform="matrix(0.984808, -0.173649, 0.173649, 0.984808, 144.851427, -91.045053)"><tspan x="96.772" y="235.073">S</tspan><tspan x="96.772" dy="1em">​</tspan></text>
  <text style="fill: rgb(51, 51, 51); font-family: Arial, sans-serif; font-size: 36px; white-space: pre;" transform="matrix(0.390732, 0.920505, -0.920505, 0.390732, 489.184913, -66.675668)"><tspan x="96.772" y="235.073">M</tspan><tspan x="96.77200317382812" dy="1em">​</tspan></text>
  <text style="fill: rgb(51, 51, 51); font-family: Arial, sans-serif; font-size: 36px; white-space: pre;" transform="matrix(-0.694658, 0.71934, -0.71934, -0.694658, 557.644967, 239.454853)" y="235.073" x="96.772">A</text>
  <text style="fill: rgb(51, 51, 51); font-family: Arial, sans-serif; font-size: 36px; white-space: pre;" transform="matrix(-0.898794, -0.438371, 0.438371, -0.898794, 284.01038, 422.985205)" y="235.073" x="96.772">R</text>
  <text style="fill: rgb(51, 51, 51); font-family: Arial, sans-serif; font-size: 36px; white-space: pre;" transform="matrix(0.052336, -0.99863, 0.99863, 0.052336, 36.14967, 234.799305)"><tspan x="96.772" y="235.073">T</tspan><tspan x="96.77200317382812" dy="1em">​</tspan></text>
</svg>