<?xml version="1.0" encoding="utf-8"?>
<svg viewBox="63.19 217.248 270.401 127.01" width="270.401" height="127.01" xmlns="http://www.w3.org/2000/svg" xmlns:bx="https://boxy-svg.com">
  <path d="M 175.852 190.09 Q 190.999 154.916 206.146 190.09 L 206.146 190.09 Q 221.293 225.264 190.999 225.264 L 190.999 225.264 Q 160.705 225.264 175.852 190.09 Z" style="stroke: rgb(0, 0, 0); fill: rgb(50, 151, 3);" transform="matrix(0.906308, 0.422617, -0.422617, 0.906308, 23.135935, 50.844384)" bx:shape="triangle 160.705 154.916 60.588 70.348 0.5 0.5 1@b5957470"/>
  <path d="M 175.852 190.09 Q 190.999 154.916 206.146 190.09 L 206.146 190.09 Q 221.293 225.264 190.999 225.264 L 190.999 225.264 Q 160.705 225.264 175.852 190.09 Z" style="stroke: rgb(0, 0, 0); fill: rgb(3, 99, 151);" transform="matrix(-0.121868, 0.992546, -0.992546, -0.121868, 312.512395, 113.15912)" bx:shape="triangle 160.705 154.916 60.588 70.348 0.5 0.5 1@b5957470"/>
  <path d="M 175.852 190.09 Q 190.999 154.916 206.146 190.09 L 206.146 190.09 Q 221.293 225.264 190.999 225.264 L 190.999 225.264 Q 160.705 225.264 175.852 190.09 Z" style="stroke: rgb(0, 0, 0); fill: rgb(209, 43, 43);" transform="matrix(-0.981627, 0.190811, -0.190811, -0.981627, 344.006261, 409.201849)" bx:shape="triangle 160.705 154.916 60.588 70.348 0.5 0.5 1@b5957470"/>
  <path d="M 175.852 190.09 Q 190.999 154.916 206.146 190.09 L 206.146 190.09 Q 221.293 225.264 190.999 225.264 L 190.999 225.264 Q 160.705 225.264 175.852 190.09 Z" style="stroke: rgb(0, 0, 0); fill: rgb(255, 153, 0);" transform="matrix(-0.500001, -0.866025, 0.866025, -0.500001, 77.029214, 528.397286)" bx:shape="triangle 160.705 154.916 60.588 70.348 0.5 0.5 1@b5957470"/>
  <path d="M 175.852 190.09 Q 190.999 154.916 206.146 190.09 L 206.146 190.09 Q 221.293 225.264 190.999 225.264 L 190.999 225.264 Q 160.705 225.264 175.852 190.09 Z" style="stroke: rgb(0, 0, 0); fill: rgb(255, 247, 0);" transform="matrix(0.681998, -0.731354, 0.731354, 0.681998, -126.343225, 306.588597)" bx:shape="triangle 160.705 154.916 60.588 70.348 0.5 0.5 1@b5957470"/>
  <text style="fill: rgb(51, 51, 51); font-family: Arial, sans-serif; font-size: 36px; white-space: pre;" transform="matrix(0.984808, -0.173649, 0.173649, 0.984808, -26.497631, 49.683644)"><tspan x="96.772" y="235.073">S</tspan><tspan x="96.772" dy="1em">​</tspan></text>
  <text style="fill: rgb(51, 51, 51); font-family: Arial, sans-serif; font-size: 36px; white-space: pre;" transform="matrix(0.390732, 0.920505, -0.920505, 0.390732, 317.835851, 74.053018)"><tspan x="96.772" y="235.073">M</tspan><tspan x="96.77200317382812" dy="1em">​</tspan></text>
  <text style="fill: rgb(51, 51, 51); font-family: Arial, sans-serif; font-size: 36px; white-space: pre;" transform="matrix(-0.694658, 0.71934, -0.71934, -0.694658, 386.295904, 380.183538)" y="235.073" x="96.772">A</text>
  <text style="fill: rgb(51, 51, 51); font-family: Arial, sans-serif; font-size: 36px; white-space: pre;" transform="matrix(-0.898794, -0.438371, 0.438371, -0.898794, 112.661302, 563.713876)" y="235.073" x="96.772">R</text>
  <text style="fill: rgb(51, 51, 51); font-family: Arial, sans-serif; font-size: 36px; white-space: pre;" transform="matrix(0.052336, -0.99863, 0.99863, 0.052336, -135.199389, 375.52799)"><tspan x="96.772" y="235.073">T</tspan><tspan x="96.77200317382812" dy="1em">​</tspan></text>
  <text style="fill: rgb(51, 51, 51); font-family: Arial, sans-serif; font-size: 14.2px; font-style: italic; letter-spacing: 1.3px; white-space: pre;" transform="matrix(4.361791, 0, 0, 7.518153, -667.45991, -1774.206814)"><tspan x="192.737" y="277.759">-LAB</tspan><tspan x="192.737" dy="1.2em">​</tspan></text>
</svg>